<svg xmlns="http://www.w3.org/2000/svg" viewBox="0 0 95 88" role="img" aria-label="Hugging Face">
  <path fill="#FFD21E" d="M47.21 76.5a34.75 34.75 0 1 0 0-69.5 34.75 34.75 0 0 0 0 69.5Z"/>
  <path fill="#FF9D0B" d="M81.96 41.75a34.75 34.75 0 1 0-69.5 0 34.75 34.75 0 0 0 69.5 0Z"/>
  <path fill="#3A3B45" d="M47.21 55.33c-8.53 0-15.44-4.3-15.44-9.61s6.91-9.61 15.44-9.61 15.44 4.3 15.44 9.61-6.91 9.61-15.44 9.61Zm-19.27-9.61c0 4.02 8.63 7.28 19.27 7.28s19.27-3.26 19.27-7.28-8.63-7.28-19.27-7.28-19.27 3.26-19.27 7.28Z"/>
  <path fill="#FF323D" d="M35.81 47.43a4.61 4.61 0 1 0 0-9.22 4.61 4.61 0 0 0 0 9.22Z"/>
  <path fill="#FF323D" d="M58.61 47.43a4.61 4.61 0 1 0 0-9.22 4.61 4.61 0 0 0 0 9.22Z"/>
</svg>
